<svg xmlns="http://www.w3.org/2000/svg" width="33" height="30" viewBox="0 0 33 30" fill="none"><path d="M11.7572 29.2188H9.9375C9.75465 29.2187 9.57474 29.1728 9.41421 29.0853C9.25368 28.9977 9.11767 28.8713 9.01859 28.7176C8.91952 28.564 8.86055 28.3879 8.84708 28.2056C8.83362 28.0232 8.86608 27.8404 8.9415 27.6738L13.3479 17.9497L6.73144 17.8027L4.31836 20.7265C3.8583 21.3048 3.49121 21.5625 2.55469 21.5625H1.32969C1.13573 21.5687 0.94313 21.5281 0.768204 21.4441C0.593277 21.3601 0.441181 21.2352 0.324804 21.0799C0.162109 20.8604 0.00214783 20.4886 0.158007 19.9581L1.51289 15.1046C1.52314 15.0684 1.53545 15.0321 1.54912 14.9966C1.5498 14.9932 1.5498 14.9897 1.54912 14.9863C1.535 14.9508 1.52291 14.9145 1.51289 14.8776L0.15664 9.99336C0.00966732 9.47314 0.170312 9.10947 0.33164 8.89551C0.439973 8.75176 0.580523 8.63544 0.741991 8.55589C0.903458 8.47634 1.08134 8.43579 1.26133 8.4375H2.55469C3.254 8.4375 3.93281 8.75127 4.33203 9.25781L6.69521 12.1323L13.3479 12.0339L8.94287 2.32686C8.86734 2.16037 8.83475 1.9776 8.84808 1.79527C8.86141 1.61294 8.92023 1.43685 9.01916 1.28311C9.11809 1.12938 9.25398 1.00289 9.41441 0.915219C9.57484 0.827547 9.75468 0.781487 9.9375 0.78125H11.7771C12.0337 0.786407 12.2859 0.84931 12.5149 0.965287C12.7439 1.08126 12.9438 1.24734 13.0998 1.45117L21.6481 11.8418L25.5973 11.7379C25.8864 11.7222 26.6876 11.7167 26.8729 11.7167C30.6504 11.7188 32.9062 12.9451 32.9062 15C32.9062 15.6467 32.6479 16.8457 30.919 17.6086C29.8984 18.0598 28.5367 18.2881 26.8715 18.2881C26.6883 18.2881 25.8892 18.2826 25.5959 18.2669L21.6475 18.1616L13.0779 28.5522C12.9218 28.7552 12.722 28.9204 12.4934 29.0358C12.2648 29.1512 12.0132 29.2137 11.7572 29.2188Z" fill="url(#paint0_linear_77_42)"></path><defs><linearGradient id="paint0_linear_77_42" x1="16.5004" y1="0.78125" x2="16.5004" y2="29.2188" gradientUnits="userSpaceOnUse"><stop stop-color="#FDCD81"></stop><stop offset="1" stop-color="#CE8108"></stop></linearGradient></defs></svg>