<svg xmlns="http://www.w3.org/2000/svg" width="29" height="26" viewBox="0 0 29 26" fill="none"><path d="M10.4167 8.53125L14.2812 0.875H14.7187L18.5833 8.53125H10.4167ZM13.4062 25.8125L0.828115 10.7187H13.4062V25.8125ZM15.5937 25.8125V10.7187H28.1719L15.5937 25.8125ZM20.9896 8.53125L17.1979 0.875H22.9219C23.4809 0.875 23.9855 1.02083 24.4356 1.3125C24.8858 1.60417 25.244 1.99306 25.5104 2.47917L28.5364 8.53125H20.9896ZM0.463531 8.53125L3.48957 2.47917C3.75693 1.99306 4.11568 1.60417 4.56582 1.3125C5.01596 1.02083 5.52006 0.875 6.07811 0.875H11.8021L8.01041 8.53125H0.463531Z" fill="url(#paint0_linear_77_40)"></path><defs><linearGradient id="paint0_linear_77_40" x1="14.5" y1="0.875" x2="14.5" y2="25.8125" gradientUnits="userSpaceOnUse"><stop stop-color="#FDCD81"></stop><stop offset="1" stop-color="#CE8108"></stop></linearGradient></defs></svg>