<svg xmlns="http://www.w3.org/2000/svg" width="25" height="30" viewBox="0 0 25 30" fill="none"><path d="M12.901 25.2084C13.1927 25.1841 13.4421 25.0689 13.6491 24.8628C13.8562 24.6567 13.9593 24.4073 13.9583 24.1147C13.9583 23.7744 13.8489 23.5012 13.6302 23.2951C13.4114 23.089 13.1319 22.9976 12.7916 23.0209C11.7951 23.0938 10.7378 22.8206 9.61977 22.2013C8.50172 21.582 7.79686 20.4576 7.50519 18.8282C7.45658 18.5608 7.32922 18.3421 7.12311 18.172C6.91699 18.0018 6.67977 17.9167 6.41144 17.9167C6.07116 17.9167 5.79165 18.0446 5.5729 18.3003C5.35415 18.556 5.28123 18.8535 5.35415 19.1928C5.76734 21.4046 6.73956 22.9845 8.27081 23.9324C9.80206 24.8803 11.3455 25.3056 12.901 25.2084ZM12.5 29.5834C9.17012 29.5834 6.39297 28.4411 4.16852 26.1563C1.94408 23.8716 0.832341 21.0279 0.833314 17.6251C0.833314 15.1945 1.7997 12.5511 3.73248 9.69466C5.66526 6.83828 8.58776 3.74564 12.5 0.416748C16.4132 3.74661 19.3362 6.83973 21.2689 9.69612C23.2017 12.5525 24.1676 15.1955 24.1666 17.6251C24.1666 21.0279 23.0544 23.8716 20.83 26.1563C18.6055 28.4411 15.8289 29.5834 12.5 29.5834Z" fill="url(#paint0_linear_77_36)"></path><defs><linearGradient id="paint0_linear_77_36" x1="12.5" y1="0.416748" x2="12.5" y2="29.5834" gradientUnits="userSpaceOnUse"><stop stop-color="#FDCD81"></stop><stop offset="1" stop-color="#CE8108"></stop></linearGradient></defs></svg>