<svg xmlns="http://www.w3.org/2000/svg" width="23" height="30" viewBox="0 0 23 30" fill="none"><path d="M22 18.3333C22 21.118 20.8938 23.7887 18.9246 25.7579C16.9555 27.727 14.2848 28.8333 11.5 28.8333C8.71523 28.8333 6.04451 27.727 4.07538 25.7579C2.10625 23.7887 1 21.118 1 18.3333C1.00107 16.2872 1.60018 14.286 2.72363 12.576C3.84707 10.866 5.44587 9.52158 7.32333 8.70825L7.734 9.02792L9.54 10.4303C7.77214 10.8665 6.20092 11.8813 5.07626 13.3133C3.9516 14.7454 3.33809 16.5124 3.33333 18.3333C3.33333 22.8366 6.99667 26.4999 11.5 26.4999C16.0033 26.4999 19.6667 22.8366 19.6667 18.3333C19.6619 16.5124 19.0484 14.7454 17.9237 13.3133C16.7991 11.8813 15.2279 10.8665 13.46 10.4303L15.6767 8.70825C17.5541 9.52158 19.1529 10.866 20.2764 12.576C21.3998 14.286 21.9989 16.2872 22 18.3333ZM11.5 8.99992L17.3333 4.46159L15 0.833252H8L5.66667 4.46159L9.16667 7.18458L11.5 8.99992Z" fill="url(#paint0_linear_481_610)" stroke="url(#paint1_linear_481_610)"></path><defs><linearGradient id="paint0_linear_481_610" x1="11.5" y1="0.833252" x2="11.5" y2="28.8333" gradientUnits="userSpaceOnUse"><stop stop-color="#FDCD81"></stop><stop offset="1" stop-color="#CE8108"></stop></linearGradient><linearGradient id="paint1_linear_481_610" x1="11.5" y1="0.833252" x2="11.5" y2="28.8333" gradientUnits="userSpaceOnUse"><stop stop-color="#FDCD81"></stop><stop offset="1" stop-color="#CE8108"></stop></linearGradient></defs></svg>